<?xml version="1.0" encoding="iso-8859-1"?>
<!-- Generator: Adobe Illustrator 20.1.0, SVG Export Plug-In . SVG Version: 6.00 Build 0)  -->
<svg xmlns="http://www.w3.org/2000/svg" xmlns:xlink="http://www.w3.org/1999/xlink" version="1.1" id="&#1057;&#1083;&#1086;&#1081;_1" x="0px" y="0px" viewBox="0 0 64 64" style="enable-background:new 0 0 64 64;" xml:space="preserve">
<linearGradient id="SVGID_1__44773" gradientUnits="userSpaceOnUse" x1="37" y1="30.9375" x2="37" y2="35.1893" spreadMethod="reflect">
	<stop offset="0" style="stop-color:#6DC7FF"/>
	<stop offset="1" style="stop-color:#E6ABFF"/>
</linearGradient>
<circle style="fill:url(#SVGID_1__44773);" cx="37" cy="33" r="2"/>
<linearGradient id="SVGID_2__44773" gradientUnits="userSpaceOnUse" x1="27" y1="30.9375" x2="27" y2="35.1893" spreadMethod="reflect">
	<stop offset="0" style="stop-color:#6DC7FF"/>
	<stop offset="1" style="stop-color:#E6ABFF"/>
</linearGradient>
<circle style="fill:url(#SVGID_2__44773);" cx="27" cy="33" r="2"/>
<linearGradient id="SVGID_3__44773" gradientUnits="userSpaceOnUse" x1="32" y1="37" x2="32" y2="41.379" spreadMethod="reflect">
	<stop offset="0" style="stop-color:#6DC7FF"/>
	<stop offset="1" style="stop-color:#E6ABFF"/>
</linearGradient>
<path style="fill:url(#SVGID_3__44773);" d="M34,37h-4c-0.552,0-1,0.448-1,1c0,1.657,1.343,3,3,3s3-1.343,3-3C35,37.448,34.552,37,34,37z"/>
<linearGradient id="SVGID_4__44773" gradientUnits="userSpaceOnUse" x1="32" y1="5.75" x2="32" y2="58.8057" spreadMethod="reflect">
	<stop offset="0" style="stop-color:#1A6DFF"/>
	<stop offset="1" style="stop-color:#C822FF"/>
</linearGradient>
<path style="fill:url(#SVGID_4__44773);" d="M53,56v-2c0-6.415-2.841-12.322-7.811-16.333c0.081-0.227,0.165-0.453,0.234-0.685  C47.982,36.767,50,34.614,50,32c0-0.47-0.086-0.916-0.208-1.347C51.703,29.918,53,28.087,53,26c0-1.639-0.803-3.083-2.025-3.995  C51.626,21.146,52,20.094,52,19c0-2.757-2.243-5-5-5c0-2.757-2.243-5-5-5c-0.789,0-1.554,0.192-2.243,0.539  C39.127,7.498,37.245,6,35,6c-1.087,0-2.138,0.363-3,1.019C31.138,6.363,30.087,6,29,6c-2.249,0-4.133,1.502-4.76,3.548  C23.551,9.195,22.787,9,22,9c-2.757,0-5,2.243-5,5c-2.757,0-5,2.243-5,5c0,1.094,0.374,2.146,1.025,3.005  C11.803,22.917,11,24.361,11,26c0,2.087,1.297,3.918,3.208,4.653C14.086,31.084,14,31.53,14,32c0,2.614,2.018,4.767,4.577,4.982  c0.069,0.232,0.154,0.458,0.234,0.685C13.841,41.677,11,47.584,11,54v2H9v2h2h42h2v-2H53z M34,48c0,1.103-0.897,2-2,2s-2-0.897-2-2  c0-0.399,0.124-0.782,0.343-1.109C30.887,46.955,31.438,47,32,47c0.562,0,1.112-0.044,1.657-0.109C33.876,47.218,34,47.601,34,48z   M28.142,49L24,51.301v-6.83c1.292,0.904,2.741,1.597,4.3,2.025C28.107,46.97,28,47.478,28,48C28,48.347,28.058,48.678,28.142,49z   M35.699,46.496c1.56-0.428,3.008-1.121,4.301-2.025v6.83L35.858,49C35.942,48.678,36,48.347,36,48  C36,47.478,35.892,46.97,35.699,46.496z M32,45c-6.617,0-12-5.383-12-12v-4.091c1.976-0.334,3.629-1.63,4.447-3.395  C25.354,26.432,26.612,27,28,27c1.634,0,3.087-0.788,4-2.003C32.913,26.212,34.366,27,36,27c1.388,0,2.646-0.568,3.553-1.485  c0.818,1.764,2.471,3.061,4.447,3.395V33C44,39.617,38.617,45,32,45z M45.876,34.87C45.958,34.258,46,33.634,46,33v-3.829  c1.164,0.413,2,1.525,2,2.829C48,33.35,47.104,34.494,45.876,34.87z M16,32c0-1.304,0.836-2.416,2-2.829V33  c0,0.634,0.042,1.258,0.124,1.87C16.896,34.494,16,33.35,16,32z M15.136,28.866C13.875,28.487,13,27.33,13,26c0-1.654,1.346-3,3-3  v-2c-0.372,0-0.731,0.047-1.08,0.125C14.34,20.562,14,19.817,14,19c0-1.654,1.346-3,3-3h2v-2c0-1.654,1.346-3,3-3  c0.743,0,1.447,0.3,2,0.81V13h2v-2c0-1.654,1.346-3,3-3c0.864,0,1.662,0.369,2.247,1.038L32,9.899l0.753-0.861  C33.338,8.369,34.136,8,35,8c1.654,0,3,1.346,3,3v2h2v-1.213C40.548,11.292,41.253,11,42,11c1.654,0,3,1.346,3,3v2h2  c1.654,0,3,1.346,3,3c0,0.817-0.34,1.562-0.92,2.125C48.731,21.047,48.372,21,48,21v2c1.654,0,3,1.346,3,3  c0,1.33-0.875,2.487-2.136,2.866C47.946,27.737,46.564,27,45,27c-2.206,0-4-1.794-4-4v-1h-2c0,1.654-1.346,3-3,3s-3-1.346-3-3h-2  c0,1.654-1.346,3-3,3s-3-1.346-3-3h-2v1c0,2.206-1.794,4-4,4C17.436,27,16.054,27.737,15.136,28.866z M47,56v-2h-2v2H19v-2h-2v2h-4  v-2c0-5.624,2.409-10.819,6.649-14.436c0.631,1.183,1.421,2.268,2.351,3.219v8.518c0,0.716,0.368,1.36,0.985,1.724  c0.315,0.186,0.664,0.279,1.014,0.279c0.333,0,0.666-0.085,0.972-0.255l4.138-2.299C29.838,51.516,30.861,52,32,52  s2.162-0.484,2.891-1.25l4.138,2.299c0.306,0.17,0.639,0.255,0.972,0.255c0.35,0,0.698-0.094,1.014-0.279  C41.632,52.661,42,52.017,42,51.301v-8.518c0.93-0.951,1.72-2.036,2.351-3.219C48.591,43.182,51,48.377,51,54v2H47z"/>
</svg>
