<?xml version="1.0" encoding="utf-8"?>
<!-- Generator: Adobe Illustrator 15.0.0, SVG Export Plug-In . SVG Version: 6.00 Build 0)  -->
<!DOCTYPE svg PUBLIC "-//W3C//DTD SVG 1.1//EN" "http://www.w3.org/Graphics/SVG/1.1/DTD/svg11.dtd">
<svg version="1.1"  xmlns="http://www.w3.org/2000/svg" xmlns:xlink="http://www.w3.org/1999/xlink" x="0px" y="0px"
	 width="48px" height="48px" viewBox="0 0 48 48" enable-background="new 0 0 48 48" xml:space="preserve">
<circle fill="#1E88E5" cx="24" cy="24" r="19"/>
<path fill="#1565C0" d="M27.723,23.04c0-1.563,3.319-2.014,3.319-5.685c0-2.203-0.196-3.532-1.87-4.313
	c0-0.548,2.956-0.188,2.956-1.209c-0.513,0-6.476,0-6.476,0s-6.558,0.167-6.558,5.914c0,5.751,5.732,5.087,5.732,5.087
	s0,0.866,0,1.454c0,0.594,0.771,0.392,0.864,1.584c-0.387,0-7.963-0.208-7.963,4.998c0,5.207,6.679,4.959,6.679,4.959
	s7.721,0.364,7.721-6.104C32.128,25.854,27.723,24.604,27.723,23.04z M22.127,18.085c-0.603-2.312,0.195-4.543,1.786-4.992
	c1.593-0.453,3.374,1.06,3.981,3.367c0.605,2.31-0.192,4.543-1.785,4.993C24.517,21.904,22.735,20.392,22.127,18.085z
	 M25.445,34.169c-2.672,0.188-4.947-1.296-5.078-3.317c-0.132-2.017,1.927-3.806,4.6-3.996c2.674-0.187,4.947,1.296,5.08,3.314
	C30.178,32.193,28.118,33.981,25.445,34.169z"/>
<path fill="#E8EAF6" d="M25.995,23.04c0-1.563,3.319-2.014,3.319-5.685c0-2.203-0.196-3.532-1.871-4.313
	c0-0.548,2.957-0.188,2.957-1.209c-0.513,0-6.476,0-6.476,0s-6.557,0.167-6.557,5.914c0,5.751,5.732,5.087,5.732,5.087
	s0,0.866,0,1.454c0,0.594,0.771,0.392,0.865,1.584c-0.387,0-7.964-0.208-7.964,4.998c0,5.207,6.679,4.959,6.679,4.959
	s7.722,0.364,7.722-6.104C30.4,25.854,25.995,24.604,25.995,23.04z M20.399,18.085c-0.604-2.312,0.195-4.543,1.786-4.992
	c1.593-0.453,3.374,1.06,3.982,3.367c0.604,2.31-0.192,4.543-1.786,4.993C22.789,21.904,21.007,20.392,20.399,18.085z
	 M23.717,34.169c-2.671,0.188-4.947-1.296-5.078-3.317c-0.133-2.017,1.927-3.806,4.599-3.996c2.674-0.187,4.948,1.296,5.08,3.314
	C28.45,32.193,26.391,33.981,23.717,34.169z"/>
</svg>
