<?xml version="1.0" encoding="iso-8859-1"?>
<!-- Generator: Adobe Illustrator 20.1.0, SVG Export Plug-In . SVG Version: 6.00 Build 0)  -->
<svg xmlns="http://www.w3.org/2000/svg" xmlns:xlink="http://www.w3.org/1999/xlink" version="1.1" id="&#1057;&#1083;&#1086;&#1081;_1" x="0px" y="0px" viewBox="0 0 64 64" style="enable-background:new 0 0 64 64;" xml:space="preserve">
<linearGradient id="SVGID_1__49443" gradientUnits="userSpaceOnUse" x1="32" y1="20" x2="32" y2="35.7743" spreadMethod="reflect">
	<stop offset="0" style="stop-color:#6DC7FF"/>
	<stop offset="1" style="stop-color:#E6ABFF"/>
</linearGradient>
<polygon style="fill:url(#SVGID_1__49443);" points="39,27 33,27 33,21 31,21 31,27 25,27 25,29 31,29 31,35 33,35 33,29 39,29 "/>
<linearGradient id="SVGID_2__49443" gradientUnits="userSpaceOnUse" x1="32" y1="6.6668" x2="32" y2="58.6934" spreadMethod="reflect">
	<stop offset="0" style="stop-color:#1A6DFF"/>
	<stop offset="1" style="stop-color:#C822FF"/>
</linearGradient>
<path style="fill:url(#SVGID_2__49443);" d="M55.772,26.215L53,23.027v-8.025C53,13.348,51.653,12,49.999,12h-9.886l-4.776-3.85  c-1.901-1.535-4.77-1.538-6.673-0.001L23.887,12h-9.886C12.347,12,11,13.348,11,15.002v8.881l-2.384,2.193  C7.589,27.02,7,28.363,7,29.758V52c0,2.757,2.245,5,5.001,5h39.997C54.755,57,57,54.756,57,52V29.498  C57,28.292,56.563,27.126,55.772,26.215z M54.262,27.528c0.007,0.008,0.011,0.016,0.018,0.024L53,28.369v-2.293L54.262,27.528z   M29.919,9.707c1.166-0.941,2.996-0.942,4.162-0.001L36.927,12h-9.854L29.919,9.707z M14.001,14h35.997  C50.55,14,51,14.451,51,15.002v14.643L33.557,40.781c-0.982,0.628-2.254,0.626-3.236-0.002L13,29.688V15.002  C13,14.451,13.45,14,14.001,14z M11,26.601v1.806l-1.142-0.732c0.04-0.041,0.07-0.088,0.112-0.127L11,26.601z M55,52  c0,1.654-1.347,3-3.001,3H12.001C10.347,55,9,53.654,9,52V29.758c0-0.082,0.019-0.161,0.026-0.242l20.217,12.947  c0.819,0.523,1.759,0.786,2.698,0.786c0.936,0,1.874-0.261,2.691-0.783l20.364-13c0,0.011,0.004,0.021,0.004,0.032V52z"/>
<linearGradient id="SVGID_3__49443" gradientUnits="userSpaceOnUse" x1="16" y1="6.6667" x2="16" y2="58.6934" spreadMethod="reflect">
	<stop offset="0" style="stop-color:#1A6DFF"/>
	<stop offset="1" style="stop-color:#C822FF"/>
</linearGradient>
<rect x="11" y="51" style="fill:url(#SVGID_3__49443);" width="10" height="2"/>
<linearGradient id="SVGID_4__49443" gradientUnits="userSpaceOnUse" x1="15" y1="6.6667" x2="15" y2="58.6934" spreadMethod="reflect">
	<stop offset="0" style="stop-color:#1A6DFF"/>
	<stop offset="1" style="stop-color:#C822FF"/>
</linearGradient>
<rect x="11" y="47" style="fill:url(#SVGID_4__49443);" width="8" height="2"/>
<linearGradient id="SVGID_5__49443" gradientUnits="userSpaceOnUse" x1="44" y1="6.6667" x2="44" y2="58.6934" spreadMethod="reflect">
	<stop offset="0" style="stop-color:#1A6DFF"/>
	<stop offset="1" style="stop-color:#C822FF"/>
</linearGradient>
<rect x="43" y="49" style="fill:url(#SVGID_5__49443);" width="2" height="4"/>
<linearGradient id="SVGID_6__49443" gradientUnits="userSpaceOnUse" x1="48" y1="6.6667" x2="48" y2="58.6934" spreadMethod="reflect">
	<stop offset="0" style="stop-color:#1A6DFF"/>
	<stop offset="1" style="stop-color:#C822FF"/>
</linearGradient>
<rect x="47" y="49" style="fill:url(#SVGID_6__49443);" width="2" height="4"/>
<linearGradient id="SVGID_7__49443" gradientUnits="userSpaceOnUse" x1="52" y1="6.6667" x2="52" y2="58.6934" spreadMethod="reflect">
	<stop offset="0" style="stop-color:#1A6DFF"/>
	<stop offset="1" style="stop-color:#C822FF"/>
</linearGradient>
<rect x="51" y="49" style="fill:url(#SVGID_7__49443);" width="2" height="4"/>
<linearGradient id="SVGID_8__49443" gradientUnits="userSpaceOnUse" x1="40" y1="6.6667" x2="40" y2="58.6934" spreadMethod="reflect">
	<stop offset="0" style="stop-color:#1A6DFF"/>
	<stop offset="1" style="stop-color:#C822FF"/>
</linearGradient>
<rect x="39" y="49" style="fill:url(#SVGID_8__49443);" width="2" height="4"/>
</svg>
