<?xml version="1.0" encoding="iso-8859-1"?>
<!-- Generator: Adobe Illustrator 20.1.0, SVG Export Plug-In . SVG Version: 6.00 Build 0)  -->
<svg xmlns="http://www.w3.org/2000/svg" xmlns:xlink="http://www.w3.org/1999/xlink" version="1.1" id="&#1057;&#1083;&#1086;&#1081;_1" x="0px" y="0px" viewBox="0 0 64 64" style="enable-background:new 0 0 64 64;" xml:space="preserve">
<linearGradient id="SVGID_1__43646" gradientUnits="userSpaceOnUse" x1="37.4998" y1="33.1255" x2="37.4998" y2="38.7503" spreadMethod="reflect">
	<stop offset="0" style="stop-color:#6DC7FF"/>
	<stop offset="1" style="stop-color:#E6ABFF"/>
</linearGradient>
<circle style="fill:url(#SVGID_1__43646);" cx="37.5" cy="36" r="2.5"/>
<linearGradient id="SVGID_2__43646" gradientUnits="userSpaceOnUse" x1="26.5001" y1="33.1255" x2="26.5001" y2="38.7503" spreadMethod="reflect">
	<stop offset="0" style="stop-color:#6DC7FF"/>
	<stop offset="1" style="stop-color:#E6ABFF"/>
</linearGradient>
<circle style="fill:url(#SVGID_2__43646);" cx="26.5" cy="36" r="2.5"/>
<linearGradient id="SVGID_3__43646" gradientUnits="userSpaceOnUse" x1="32" y1="40.7501" x2="32" y2="45.2656" spreadMethod="reflect">
	<stop offset="0" style="stop-color:#6DC7FF"/>
	<stop offset="1" style="stop-color:#E6ABFF"/>
</linearGradient>
<path style="fill:url(#SVGID_3__43646);" d="M28,41c0,2,1.791,4,4,4s4-2,4-4H28z"/>
<linearGradient id="SVGID_4__43646" gradientUnits="userSpaceOnUse" x1="32" y1="5.7513" x2="32" y2="58.8086" spreadMethod="reflect">
	<stop offset="0" style="stop-color:#1A6DFF"/>
	<stop offset="1" style="stop-color:#C822FF"/>
</linearGradient>
<path style="fill:url(#SVGID_4__43646);" d="M51,32.001c0-1.302-1-2.402-2-2.816v-1.184c0-4.694-2-8.949-5-12.029V8.877  c0-0.932-0.489-1.777-1.343-2.319c-1.033-0.658-2.377-0.74-3.506-0.213L35.2,8.192C34.33,7.46,33.223,7.001,32,7.001  c-1.223,0-2.33,0.459-3.2,1.191l-3.951-1.846c-1.127-0.528-2.471-0.447-3.506,0.212C20.489,7.1,20,7.946,20,8.877v7.095  c-3,3.079-5,7.334-5,12.029v1.184c-1,0.414-2,1.514-2,2.816c-1.103,0-2,0.897-2,2c0,1.103,0.897,2,2,2c0,1.302,1,2.402,2,2.816V45  c0,1.654,1.346,3,3,3h5v-0.028C25,49.864,28.621,51,32,51s6-1.136,9-3.028V48h5c1.654,0,3-1.346,3-3v-6.184c1-0.414,2-1.514,2-2.816  c1.103,0,2-0.897,2-2C53,32.898,52.102,32.001,51,32.001z M39.999,8.157c0.508-0.236,1.129-0.2,1.585,0.089  C41.739,8.344,42,8.557,42,8.877v5.407c-2-1.104-3.198-1.976-5.026-2.537c-0.036-0.695-0.212-1.348-0.504-1.941L39.999,8.157z   M32,9.001c1.4,0,2.569,0.967,2.898,2.266c-0.944-0.163-1.908-0.266-2.898-0.266c-0.99,0-1.955,0.103-2.898,0.266  C29.431,9.968,30.6,9.001,32,9.001z M22,8.877c0-0.32,0.261-0.533,0.416-0.632c0.456-0.289,1.079-0.326,1.585-0.088l3.529,1.649  c-0.292,0.592-0.468,1.245-0.504,1.94C25.198,12.308,23,13.18,22,14.284V8.877z M32,13.001c8.271,0,15,6.728,15,15V29h-1h-1h-9  c-4.411,0-8-3.588-8-7.999V19h-2v2.001C26,25.412,22.411,29,18,29h-1v-0.999C17,19.729,23.729,13.001,32,13.001z M15,32.001  c0-0.552,0.449-1,1.001-1H17v5v1H16C15.449,37,15,36.552,15,36V32.001z M17,45v-6h0.303c0.542,3,1.801,5,3.549,7H18  C17.449,46,17,45.552,17,45z M19,36V30.95c3-0.353,6.52-2.556,8-5.62c1.618,3.349,5.039,5.67,9,5.67h9v5c0,7.168-5.832,13-13,13  S19,43.168,19,36z M46,46h-2.851c1.748-2,3.007-4,3.549-7H47v6C47,45.552,46.551,46,46,46z M49,36c0,0.552-0.449,1-1,1h-1v-1v-5h1  c0.552,0,1,0.449,1,1V36z"/>
<linearGradient id="SVGID_5__43646" gradientUnits="userSpaceOnUse" x1="40" y1="5.7501" x2="40" y2="58.809" spreadMethod="reflect">
	<stop offset="0" style="stop-color:#1A6DFF"/>
	<stop offset="1" style="stop-color:#C822FF"/>
</linearGradient>
<path style="fill:url(#SVGID_5__43646);" d="M49,51c0,1.654-1.346,3-3,3h-7.184c-0.414-1-1.514-2-2.816-2h-4c-1.654,0-3,1.346-3,3  s1.346,3,3,3h4c1.302,0,2.402-1,2.816-2H46c2.757,0,5-2.243,5-5v-3h-2V51z M36,56h-4c-0.552,0-1-0.448-1-1s0.448-1,1-1h4  c0.552,0,1,0.448,1,1S36.552,56,36,56z"/>
<linearGradient id="SVGID_6__43646" gradientUnits="userSpaceOnUse" x1="21" y1="5.7486" x2="21" y2="58.8127" spreadMethod="reflect">
	<stop offset="0" style="stop-color:#1A6DFF"/>
	<stop offset="1" style="stop-color:#C822FF"/>
</linearGradient>
<path style="fill:url(#SVGID_6__43646);" d="M24,21h-2c0,2-2,4.001-4,4.001v2C21,27.001,24,25,24,21z"/>
<linearGradient id="SVGID_7__43646" gradientUnits="userSpaceOnUse" x1="36.5" y1="5.7501" x2="36.5" y2="58.809" spreadMethod="reflect">
	<stop offset="0" style="stop-color:#1A6DFF"/>
	<stop offset="1" style="stop-color:#C822FF"/>
</linearGradient>
<path style="fill:url(#SVGID_7__43646);" d="M36,27h7v-2h-7c-2.206,0-4-2-4-4h-2C30,25,32.691,27,36,27z"/>
</svg>
