<?xml version="1.0" encoding="iso-8859-1"?>
<!-- Generator: Adobe Illustrator 19.2.0, SVG Export Plug-In . SVG Version: 6.00 Build 0)  -->
<svg xmlns="http://www.w3.org/2000/svg" xmlns:xlink="http://www.w3.org/1999/xlink" version="1.1" id="Layer_1" x="0px" y="0px" viewBox="0 0 40 40" style="enable-background:new 0 0 40 40;" xml:space="preserve">
<g>
	<circle style="fill:#DFF0FE;" cx="20" cy="20" r="19"/>
</g>
<path style="fill:#4788C7;" d="M20,1c-3.287,0-6.369,0.848-9.065,2.318c-0.231,0.107-0.465,0.347-0.252,0.753  c0.113,0.215,0.379,0.301,0.621,0.195C13.885,2.831,16.844,2,20,2c9.925,0,18,8.075,18,18s-8.075,18-18,18S2,29.925,2,20  c0-0.319,0.015-0.634,0.037-0.948c0.034-0.428-0.195-0.581-0.442-0.634c-0.154-0.033-0.506,0.024-0.542,0.318  C1.02,19.153,1,19.574,1,20c0,10.493,8.507,19,19,19s19-8.507,19-19S30.493,1,20,1z"/>
<path style="fill:none;stroke:#4788C7;stroke-linecap:round;stroke-miterlimit:10;" d="M9,30c0,0,16-7.853,22,0"/>
<path style="fill:none;stroke:#4788C7;stroke-linecap:round;stroke-miterlimit:10;" d="M33.358,11.378  c-1.014-2.419-3.797-3.559-6.217-2.545"/>
<path style="fill:none;stroke:#4788C7;stroke-linecap:round;stroke-miterlimit:10;" d="M11.642,11.378  c1.014-2.419,3.797-3.559,6.217-2.545"/>
<circle style="fill:#4788C7;" cx="4" cy="17" r="1.5"/>
<path style="fill:none;stroke:#4788C7;stroke-width:2;stroke-miterlimit:10;" d="M1,6c0-2.127,1.873-4,4-4h0  c2.127,0,4,1.725,4,3.852l0,0C9,9.004,4,10.668,4,14"/>
<g>
	<ellipse style="fill:#FFFFFF;" cx="29" cy="17" rx="3.5" ry="4.5"/>
	<g>
		<path style="fill:#4788C7;" d="M29,13c1.654,0,3,1.794,3,4s-1.346,4-3,4s-3-1.794-3-4S27.346,13,29,13 M29,12    c-2.209,0-4,2.239-4,5s1.791,5,4,5s4-2.239,4-5S31.209,12,29,12L29,12z"/>
	</g>
</g>
<ellipse style="fill:#4788C7;" cx="29" cy="17" rx="1.25" ry="2"/>
<g>
	<ellipse style="fill:#FFFFFF;" cx="16" cy="17" rx="3.5" ry="4.5"/>
	<g>
		<path style="fill:#4788C7;" d="M16,13c1.654,0,3,1.794,3,4s-1.346,4-3,4s-3-1.794-3-4S14.346,13,16,13 M16,12    c-2.209,0-4,2.239-4,5s1.791,5,4,5s4-2.239,4-5S18.209,12,16,12L16,12z"/>
	</g>
</g>
<ellipse style="fill:#4788C7;" cx="16" cy="17" rx="1.25" ry="2"/>
</svg>
