<?xml version="1.0" encoding="iso-8859-1"?>
<!-- Generator: Adobe Illustrator 20.1.0, SVG Export Plug-In . SVG Version: 6.00 Build 0)  -->
<svg xmlns="http://www.w3.org/2000/svg" xmlns:xlink="http://www.w3.org/1999/xlink" version="1.1" id="&#1057;&#1083;&#1086;&#1081;_1" x="0px" y="0px" viewBox="0 0 64 64" style="enable-background:new 0 0 64 64;" xml:space="preserve">
<linearGradient id="SVGID_1__48212" gradientUnits="userSpaceOnUse" x1="32" y1="7" x2="32" y2="57.7986" spreadMethod="reflect">
	<stop offset="0" style="stop-color:#1A6DFF"/>
	<stop offset="1" style="stop-color:#C822FF"/>
</linearGradient>
<path style="fill:url(#SVGID_1__48212);" d="M55,7H9c-1.654,0-3,1.346-3,3v34c0,1.654,1.346,3,3,3h17v4h-4c-1.654,0-3,1.346-3,3v3h26v-3  c0-1.654-1.346-3-3-3h-4v-4h17c1.654,0,3-1.346,3-3V10C58,8.346,56.654,7,55,7z M42,53c0.551,0,1,0.448,1,1v1H21v-1  c0-0.552,0.449-1,1-1h4h12H42z M36,51h-8v-4h8V51z M56,44c0,0.552-0.449,1-1,1H38H26H9c-0.551,0-1-0.448-1-1V10c0-0.552,0.449-1,1-1  h46c0.551,0,1,0.448,1,1V44z"/>
<linearGradient id="SVGID_2__48212" gradientUnits="userSpaceOnUse" x1="32" y1="7" x2="32" y2="57.7986" spreadMethod="reflect">
	<stop offset="0" style="stop-color:#1A6DFF"/>
	<stop offset="1" style="stop-color:#C822FF"/>
</linearGradient>
<path style="fill:url(#SVGID_2__48212);" d="M52,11H12c-1.103,0-2,0.897-2,2v26h44V13C54,11.897,53.103,11,52,11z M52,13v2H12v-2H52z   M12,37V17h40v20H12z"/>
<linearGradient id="SVGID_3__48212" gradientUnits="userSpaceOnUse" x1="49" y1="7" x2="49" y2="57.7986" spreadMethod="reflect">
	<stop offset="0" style="stop-color:#1A6DFF"/>
	<stop offset="1" style="stop-color:#C822FF"/>
</linearGradient>
<rect x="46" y="41" style="fill:url(#SVGID_3__48212);" width="6" height="2"/>
<linearGradient id="SVGID_4__48212" gradientUnits="userSpaceOnUse" x1="41" y1="7" x2="41" y2="57.7986" spreadMethod="reflect">
	<stop offset="0" style="stop-color:#1A6DFF"/>
	<stop offset="1" style="stop-color:#C822FF"/>
</linearGradient>
<rect x="38" y="41" style="fill:url(#SVGID_4__48212);" width="6" height="2"/>
<linearGradient id="SVGID_5__48212" gradientUnits="userSpaceOnUse" x1="32" y1="11.875" x2="32" y2="15.6271" spreadMethod="reflect">
	<stop offset="0" style="stop-color:#6DC7FF"/>
	<stop offset="1" style="stop-color:#E6ABFF"/>
</linearGradient>
<rect x="12" y="13" style="fill:url(#SVGID_5__48212);" width="40" height="2"/>
<linearGradient id="SVGID_6__48212" gradientUnits="userSpaceOnUse" x1="32" y1="18.125" x2="32" y2="29.3067" spreadMethod="reflect">
	<stop offset="0" style="stop-color:#6DC7FF"/>
	<stop offset="1" style="stop-color:#E6ABFF"/>
</linearGradient>
<path style="fill:url(#SVGID_6__48212);" d="M30.9,28.005l-0.779-7.79c-0.065-0.65,0.446-1.215,1.1-1.215h1.558  c0.654,0,1.165,0.564,1.1,1.215l-0.779,7.79C33.043,28.57,32.568,29,32,29h0C31.432,29,30.957,28.57,30.9,28.005z"/>
<linearGradient id="SVGID_7__48212" gradientUnits="userSpaceOnUse" x1="32" y1="30" x2="32" y2="35.5014" spreadMethod="reflect">
	<stop offset="0" style="stop-color:#6DC7FF"/>
	<stop offset="1" style="stop-color:#E6ABFF"/>
</linearGradient>
<path style="fill:url(#SVGID_7__48212);" d="M34,33c0,1.105-0.895,2-2,2h0c-1.105,0-2-0.895-2-2v0c0-1.105,0.895-2,2-2h0  C33.105,31,34,31.895,34,33L34,33z"/>
</svg>
