<?xml version="1.0" encoding="iso-8859-1"?>
<!-- Generator: Adobe Illustrator 20.1.0, SVG Export Plug-In . SVG Version: 6.00 Build 0)  -->
<svg xmlns="http://www.w3.org/2000/svg" xmlns:xlink="http://www.w3.org/1999/xlink" version="1.1" id="&#1057;&#1083;&#1086;&#1081;_1" x="0px" y="0px" viewBox="0 0 64 64" style="enable-background:new 0 0 64 64;" xml:space="preserve">
<linearGradient id="SVGID_1__48140" gradientUnits="userSpaceOnUse" x1="31.9996" y1="27.25" x2="31.9996" y2="37.5274" spreadMethod="reflect">
	<stop offset="0" style="stop-color:#6DC7FF"/>
	<stop offset="1" style="stop-color:#E6ABFF"/>
</linearGradient>
<circle style="fill:url(#SVGID_1__48140);" cx="32" cy="32" r="4"/>
<linearGradient id="SVGID_2__48140" gradientUnits="userSpaceOnUse" x1="38.2205" y1="8.5341" x2="37.9705" y2="56.0341" spreadMethod="reflect">
	<stop offset="0" style="stop-color:#1A6DFF"/>
	<stop offset="1" style="stop-color:#C822FF"/>
</linearGradient>
<path style="fill:url(#SVGID_2__48140);" d="M60.682,32.069C60.289,31.399,59.603,31,58.847,31h-3.873C54.449,18.78,44.347,9,32,9  c-6.396,0-12.336,2.562-16.728,7.214l1.455,1.373C20.736,13.339,26.16,11,32,11c11.242,0,20.422,8.887,20.949,20h-3.798  c-0.756,0-1.441,0.4-1.835,1.07c-0.411,0.702-0.421,1.58-0.023,2.29l3.866,6.929C51.756,42.36,52.817,43,53.999,43c0,0,0,0,0.001,0  c1.181,0,2.243-0.64,2.841-1.711l3.866-6.929C61.104,33.649,61.094,32.771,60.682,32.069z M58.961,33.386l-3.866,6.929  C54.851,40.75,54.452,41,54,41h-0.001c-0.452,0-0.851-0.25-1.094-0.686l-3.866-6.93c-0.079-0.142-0.018-0.268,0.003-0.303  C49.074,33.027,49.11,33,49.151,33h9.696c0.041,0,0.078,0.027,0.109,0.082C58.978,33.117,59.04,33.244,58.961,33.386z"/>
<linearGradient id="SVGID_3__48140" gradientUnits="userSpaceOnUse" x1="26.0263" y1="8.4699" x2="25.7763" y2="55.9699" spreadMethod="reflect">
	<stop offset="0" style="stop-color:#1A6DFF"/>
	<stop offset="1" style="stop-color:#C822FF"/>
</linearGradient>
<path style="fill:url(#SVGID_3__48140);" d="M32,53c-11.242,0-20.422-8.887-20.949-20h3.797c0.756,0,1.441-0.399,1.835-1.069  c0.412-0.702,0.422-1.58,0.024-2.291l-3.866-6.929C12.243,21.64,11.18,21,10,21c-0.001,0-0.001,0-0.001,0  c-1.182,0-2.243,0.64-2.84,1.711l-3.866,6.928c-0.397,0.711-0.388,1.589,0.023,2.291C3.71,32.6,4.395,33,5.151,33h3.874  C9.551,45.22,19.652,55,32,55c6.396,0,12.336-2.562,16.728-7.214l-1.455-1.373C43.263,50.661,37.84,53,32,53z M5.042,30.918  c-0.021-0.035-0.082-0.161-0.003-0.304l3.866-6.929C9.148,23.25,9.547,23,9.999,23c0.453,0,0.853,0.25,1.096,0.686l3.866,6.929  c0.079,0.142,0.018,0.269-0.004,0.304C14.926,30.973,14.888,31,14.847,31H5.151C5.11,31,5.074,30.973,5.042,30.918z"/>
<linearGradient id="SVGID_4__48140" gradientUnits="userSpaceOnUse" x1="32.1234" y1="8.502" x2="31.8734" y2="56.002" spreadMethod="reflect">
	<stop offset="0" style="stop-color:#1A6DFF"/>
	<stop offset="1" style="stop-color:#C822FF"/>
</linearGradient>
<path style="fill:url(#SVGID_4__48140);" d="M40,32c0-4.411-3.589-8-8-8s-8,3.589-8,8s3.589,8,8,8S40,36.411,40,32z M26,32  c0-3.309,2.691-6,6-6s6,2.691,6,6s-2.691,6-6,6S26,35.309,26,32z"/>
</svg>
