<?xml version="1.0" encoding="utf-8"?>
<!-- Generator: Adobe Illustrator 15.0.0, SVG Export Plug-In . SVG Version: 6.00 Build 0)  -->
<!DOCTYPE svg PUBLIC "-//W3C//DTD SVG 1.1//EN" "http://www.w3.org/Graphics/SVG/1.1/DTD/svg11.dtd">
<svg version="1.1"  xmlns="http://www.w3.org/2000/svg" xmlns:xlink="http://www.w3.org/1999/xlink" x="0px" y="0px"
	 width="48px" height="48px" viewBox="0 0 48 48" enable-background="new 0 0 48 48" xml:space="preserve">
<path fill="#FFB74D" d="M24,11c-2.206,0-4-1.794-4-4s1.794-4,4-4s4,1.794,4,4S26.206,11,24,11"/>
<g>
	<circle fill="#42A5F5" cx="11" cy="22" r="5"/>
	<circle fill="#42A5F5" cx="37" cy="22" r="5"/>
	<circle fill="#42A5F5" cx="17" cy="40" r="5"/>
	<circle fill="#42A5F5" cx="31" cy="40" r="5"/>
</g>
<g>
	<path fill="#3F51B5" d="M29,29.019c0,2.209-1.791-0.001-4-0.001c0,0,0-1.001-1-1s-1,1-1,1c-2.209,0-4,1.21-4-0.999V17
		c0-2.209,0-3.998,1-4h8c0,0,1,1.791,1,4V29.019z"/>
	<path fill="#3F51B5" d="M17,42.002c-0.223,0-0.45-0.039-0.673-0.118c-1.04-0.372-1.582-1.517-1.21-2.557L19,28.019
		c0.372-1.04,2.63-5.271,3.673-4.901c1.04,0.372,0.699,4.86,0.327,5.9l-4.117,11.655C18.591,41.49,17.821,42.002,17,42.002z"/>
	<path fill="#3F51B5" d="M31,42.002c-0.821,0-1.592-0.512-1.883-1.329L25,29.018c-0.372-1.04-0.713-5.528,0.327-5.9
		c1.041-0.369,3.302,3.861,3.673,4.901l3.883,11.309c0.372,1.04-0.17,2.185-1.21,2.557C31.45,41.963,31.223,42.002,31,42.002z"/>
	<line fill="none" stroke="#3F51B5" stroke-width="4" stroke-linecap="round" x1="11" y1="22" x2="20" y2="15.002"/>
	<line fill="#3F51B5" stroke="#3F51B5" stroke-width="4" stroke-linecap="round" x1="37" y1="22" x2="28" y2="15.002"/>
</g>
</svg>
